<?xml version="1.0"?>
<svg width="851" height="746.0542" xmlns="http://www.w3.org/2000/svg" xmlns:svg="http://www.w3.org/2000/svg" data-name="Layer 1">
 <title>ideas</title>
 <g class="layer">
  <title>Layer 1</title>
  <ellipse cx="474.5" cy="691.55" fill="#3f3d56" id="svg_1" rx="308.5" ry="54.5"/>
  <path d="m269.19,338.68a146.9,146.9 0 1 0 -68.16,54.73a47.52,47.52 0 1 0 68.16,-54.73z" fill="#694d35" id="svg_2"/>
  <rect fill="#fff" height="13.8" id="svg_3" width="174.75" x="59.78" y="227.3"/>
  <rect fill="#fff" height="13.8" id="svg_4" width="174.75" x="59.78" y="250.3"/>
  <rect fill="#fff" height="13.8" id="svg_5" width="174.75" x="59.78" y="273.29"/>
  <path d="m581.81,229.41a146.9,146.9 0 1 1 68.16,54.72a47.52,47.52 0 1 1 -68.16,-54.72z" fill="#694d35" id="svg_6"/>
  <rect fill="#fff" height="13.8" id="svg_7" transform="translate(1582.19103 326.82895) rotate(-180)" width="174.75" x="790.97" y="195"/>
  <rect fill="#fff" height="13.8" id="svg_8" transform="translate(1582.19103 372.81473) rotate(-180)" width="174.75" x="790.97" y="218"/>
  <rect fill="#fff" height="13.8" id="svg_9" transform="translate(1582.19103 418.8005) rotate(-180)" width="174.75" x="790.97" y="240.99"/>
  <path d="m326.71,631.49a82.01,82.01 0 1 1 38.05,30.56a26.53,26.53 0 1 1 -38.05,-30.56z" fill="#694d35" id="svg_10"/>
  <circle cx="362.55" cy="583.84" fill="#fff" id="svg_11" r="9.49"/>
  <circle cx="394.93" cy="583.84" fill="#fff" id="svg_12" r="9.49"/>
  <circle cx="427.31" cy="583.84" fill="#fff" id="svg_13" r="9.49"/>
  <path d="m578.94,366.38s42.34,1.15 49.34,3.7s10.12,20.74 10.12,20.74l-32.88,10.33l-24.59,-1.39l-18.51,1.31l10.33,-27.07l6.19,-7.62z" fill="#2f2e41" id="svg_14" transform="translate(-174.5 -76.9729)"/>
  <path d="m580.76,352.49s2.79,10.76 -3.39,18.38s26.58,34.77 26.58,34.77l17.28,-2.98s-3.81,-33.06 1.31,-41.43s-41.78,-8.74 -41.78,-8.74z" fill="#9f616a" id="svg_15" transform="translate(-174.5 -76.9729)"/>
  <path d="m580.76,352.49s2.79,10.76 -3.39,18.38s26.58,34.77 26.58,34.77l17.28,-2.98s-3.81,-33.06 1.31,-41.43s-41.78,-8.74 -41.78,-8.74z" id="svg_16" opacity="0.1" transform="translate(-174.5 -76.9729)"/>
  <polygon fill="#9f616a" id="svg_17" points="521.22 590.132 483.081 640.709 509.109 655.905 544.931 597.296 521.22 590.132"/>
  <path d="m668.97,718.53s-14.05,-16.31 -13.42,-12.67s-9.99,34.49 -0.12,37.48s94.61,10.9 95.77,1.34s-25.27,-16.27 -25.27,-16.27s-15.71,-15.09 -19.19,-13.56s-37.77,3.68 -37.77,3.68z" fill="#2f2e41" id="svg_18" transform="translate(-174.5 -76.9729)"/>
  <polygon fill="#9f616a" id="svg_19" points="512.663 638.435 543.126 690.333 566.125 677.014 535.407 634.525 512.663 638.435"/>
  <path d="m735.25,591.94l-9.04,12.79s-43.1,59.86 -38.52,64.69s23.64,23.1 33.33,19.56s44.14,-64.72 44.14,-64.72l-8.98,-35.92l-20.93,3.6z" fill="#2f2e41" id="svg_20" transform="translate(-174.5 -76.9729)"/>
  <path d="m549.59,579.83s9.65,18.01 34.12,24.1s50.02,18.57 50.93,18.41s3.48,-1.53 4.11,2.11s7.33,9.98 7.33,9.98s27.02,91.82 37.34,91.92s31.53,-7.29 31.97,-10.17s-31.6,-96.67 -31.91,-98.49l-3.75,-21.83s42.37,6.77 46.32,7.96s39.11,20.44 39.11,20.44s35.84,-25.83 2.32,-51.91s-91.14,-45.22 -91.14,-45.22l-20.66,-5.81l-18.02,-1.08l-2.65,-10.17l-42.66,2.46l-44.52,18.89l1.76,48.41z" fill="#2f2e41" id="svg_21" transform="translate(-174.5 -76.9729)"/>
  <circle cx="431.39" cy="263.7" fill="#9f616a" id="svg_22" r="33.23"/>
  <path d="m575.83,367.38l4,-0.68s7.22,27.79 29.55,32.38c0,0 11.02,-13.2 10.55,-15.43s8.72,-14.11 13.61,-7.45s-1.19,123.84 2.92,125.94s12.92,4.34 5.83,12.11s-35.27,18.24 -41.51,14.63s-18.99,-34.2 -24.51,-44.49s-14.34,-45.31 -14.34,-45.31s-11.27,-38.33 -4.34,-47.02s18.24,-24.68 18.24,-24.68z" fill="#d0cde1" id="svg_23" transform="translate(-174.5 -76.9729)"/>
  <path d="m607.63,511.65a189.57,189.57 0 0 1 -3.8,24.27c-1.63,6.51 -3.53,10.44 -5.69,10.27c-5.53,-0.41 -8.04,7.69 -9.34,17.04c-1.38,9.91 -1.38,21.22 -2.14,25.21c-1.01,5.28 -7.43,9.31 -20.28,8.13a90.66,90.66 0 0 1 -22.35,-5.48c-17.35,-6.31 -16.84,-57.46 -13.93,-95.41c1.77,-23.26 4.44,-41.58 4.44,-41.58s-5.27,-15.72 -6.95,-26.49a35.21,35.21 0 0 1 -0.51,-5.95c0.26,-9.41 17.44,-34.84 27.82,-50.68c10.39,-15.84 24.57,-4.22 24.57,-4.22l-4.93,14.89s7.64,11.8 7.7,23.03s18.31,19.33 24.86,24.77c4.12,3.42 4.02,49.02 0.53,82.2z" fill="#2f2e41" id="svg_24" transform="translate(-174.5 -76.9729)"/>
  <path d="m622.06,372.08s1.2,1.42 6.69,0.73c6.57,-0.83 15.61,1.44 17.71,7.72c3.86,11.52 14.72,58.35 14.72,58.35s4.52,53.55 6.55,65.38s1.02,22.3 3.03,28.51s-19.79,-11.58 -27.82,-9.26s-13.19,-27.71 -12.18,-38.19s1.86,-21.86 -0.93,-32.62s2.16,-39.24 1.97,-45.76s-17.71,-22.97 -9.74,-34.86z" fill="#2f2e41" id="svg_25" transform="translate(-174.5 -76.9729)"/>
  <path d="m645.58,538.51s35.18,19.19 38.55,46.51s-47.06,-26.45 -47.06,-26.45l8.51,-20.06z" fill="#9f616a" id="svg_26" transform="translate(-174.5 -76.9729)"/>
  <path d="m665.66,519.13s10.79,54.35 27.58,51.46s-9.38,-54.59 -9.38,-54.59l-18.2,3.13z" fill="#9f616a" id="svg_27" transform="translate(-174.5 -76.9729)"/>
  <path d="m723.18,756.05s-8.6,9.91 -10.73,8.4s-7.04,19 -2.61,22.93s21.45,10.36 21.63,16.89s45.86,5.23 47.49,-1.61s-5.73,-22.43 -10.9,-25.29s-24.31,-29.15 -24.31,-29.15s-14.98,2.18 -20.57,7.83z" fill="#2f2e41" id="svg_28" transform="translate(-174.5 -76.9729)"/>
  <path d="m639.97,571.74c-8.16,-5.76 -30.94,-7.19 -51.17,-8.51c-8.87,-0.57 -17.26,-1.13 -23.7,-2.04c-6.2,-0.86 -11.78,-6.53 -16.74,-14.98c-7.51,-12.8 -13.59,-32 -18.26,-50.53c1.77,-23.26 4.44,-41.58 4.44,-41.58s-5.27,-15.72 -6.95,-26.49a14.18,14.18 0 0 1 4.48,-4.04c21.46,-9.21 41.94,81.42 44.54,95.64c0.05,0.24 0.08,0.46 0.11,0.65c1.27,7.32 14.9,13.58 27.11,16.06c7.52,1.53 14.52,1.63 17.75,-0.36c8.47,-5.2 34.52,15.62 36.5,16.21c1.98,0.61 -6.39,28.27 -18.11,19.97z" id="svg_29" opacity="0.1" transform="translate(-174.5 -76.9729)"/>
  <path d="m532.08,417.99s-15.6,7.36 -8.75,41.78s20.66,92.92 41.77,95.85s63.14,2.26 74.87,10.54s20.08,-19.37 18.11,-19.97s-28.03,-21.4 -36.51,-16.2s-42.81,-3.88 -44.84,-15.71s-22.85,-105.66 -44.65,-96.29z" fill="#2f2e41" id="svg_30" transform="translate(-174.5 -76.9729)"/>
  <path d="m644.45,401.48l17.13,39.77s1.73,-0.86 3.73,5.35s2.95,11.67 6.46,15.75s19.13,62.28 19.6,65.01s-21.58,12.14 -26.5,4.55s-20.42,-130.43 -20.42,-130.43z" fill="#2f2e41" id="svg_31" transform="translate(-174.5 -76.9729)"/>
  <path d="m586.99,340.21c1.27,-0.34 1.46,-2.03 1.5,-3.35c0.23,-7.05 4.48,-14.29 11.23,-16.35a18.88,18.88 0 0 1 7.96,-0.44a30.15,30.15 0 0 1 10.78,3.6c1.76,0.99 3.48,2.18 5.48,2.48c1.32,0.2 7.02,1.86 8.33,2.09c2.89,0.52 5.57,3.1 8.34,2.14c2.65,-0.92 3.23,-4.35 3.3,-7.15c0.14,-6.39 -4.7,-15.22 -8.97,-19.97c-3.24,-3.61 -8.12,-5.27 -12.89,-6.14a85.79,85.79 0 0 0 -16.85,-1.02c-7.63,0.13 -15.48,0.72 -22.36,4.03s-12.66,9.87 -12.99,17.49c-0.07,1.59 0.1,3.19 -0.04,4.77c-0.32,3.87 -2.37,7.36 -3.34,11.12a20.33,20.33 0 0 0 2.84,16.25c2.56,3.75 6.57,7.15 6.42,11.69l5.54,-5.73a4.55,4.55 0 0 0 1.35,-5.56l-1.96,-7.64a6.9,6.9 0 0 1 -0.17,-4.26c2.1,-5.19 4.37,2.52 6.5,1.95z" fill="#2f2e41" id="svg_32" transform="translate(-174.5 -76.9729)"/>
  <path d="m838.65,722.55c-0.23,-0.38 -5.64,-9.41 -7.52,-28.17c-1.72,-17.22 -0.61,-46.23 14.43,-86.7c28.51,-76.67 -6.57,-138.53 -6.93,-139.15l1.74,-1c0.09,0.15 9.14,15.92 14.48,41.04a179.06,179.06 0 0 1 -7.41,99.81c-28.46,76.54 -7.3,112.77 -7.09,113.13l-1.7,1.04z" fill="#3f3d56" id="svg_33" transform="translate(-174.5 -76.9729)"/>
  <circle cx="653" cy="374.05" fill="#694d35" id="svg_34" r="13"/>
  <circle cx="694" cy="422.05" fill="#3f3d56" id="svg_35" r="13"/>
  <circle cx="666" cy="454.05" fill="#694d35" id="svg_36" r="13"/>
  <circle cx="700" cy="481.05" fill="#694d35" id="svg_37" r="13"/>
  <circle cx="656" cy="523.05" fill="#3f3d56" id="svg_38" r="13"/>
  <path d="m846.5,723.03s-13,-32 26,-56l-26,56z" fill="#3f3d56" id="svg_39" transform="translate(-174.5 -76.9729)"/>
  <path d="m830.51,722.45s-5.91,-34.03 -51.71,-33.74l51.71,33.74z" fill="#3f3d56" id="svg_40" transform="translate(-174.5 -76.9729)"/>
 </g>
</svg>